<svg width="27" height="27" viewBox="0 0 27 27" fill="none" xmlns="http://www.w3.org/2000/svg">
<path fill-rule="evenodd" clip-rule="evenodd" d="M20.2488 25.1894C13.793 28.9167 5.53789 26.7047 1.8106 20.2489C-1.91669 13.793 0.295251 5.53795 6.75111 1.81066C12.9044 -1.74195 20.6923 0.101034 24.6361 5.87166L24.6702 5.85199L25.1893 6.75117L25.7085 7.65035L25.6744 7.67002C28.7 13.9708 26.4021 21.6368 20.2488 25.1894ZM23.8698 8.71192C26.3261 14.0155 24.3701 20.4122 19.2105 23.391C14.051 26.3699 7.5333 24.8655 4.16843 20.0865L23.8698 8.71192ZM22.8315 6.91356C19.4666 2.13458 12.9489 0.630163 7.7894 3.60903C2.62985 6.58789 0.673861 12.9846 3.13014 18.2881L22.8315 6.91356Z" fill="#C4C4C4"/>
</svg>
