<svg width="40" height="32" viewBox="0 0 40 32" fill="none" xmlns="http://www.w3.org/2000/svg">
<path d="M31.4165 1.9329C20.9466 -4.91286 21.3493 8.98018 10.7786 4.44972C0.207938 -0.0807475 0.71133 12.5036 6.75173 15.0204C12.7921 17.5373 4.73824 18.0406 0.71133 23.5776C-3.31558 29.1146 10.7786 30.6247 17.3223 23.5776C23.8661 16.5305 21.3493 21.5642 31.4165 23.5776C41.4838 25.5911 40.9805 18.544 38.4636 15.0204C35.9468 11.4969 31.4165 16.0272 31.4165 12.5036C31.4165 8.98007 44.504 10.4901 31.4165 1.9329Z" fill="#C4C4C4"/>
<path d="M22.1624 24.5845C19.9322 24.5845 18.4453 26.1423 17.9807 26.9212C13.1019 30.0368 18.3291 32.9616 18.3291 30.6248C18.3291 28.2881 19.3745 30.9481 22.8594 28.6114C26.3442 26.2747 24.9503 24.5845 22.1624 24.5845Z" fill="#C4C4C4"/>
</svg>
