<svg width="11" height="11" viewBox="0 0 11 11" fill="none" xmlns="http://www.w3.org/2000/svg">
<path fill-rule="evenodd" clip-rule="evenodd" d="M10.4741 3.11665L10.0511 2.38398L10.037 2.39215C8.43021 0.0411295 5.25737 -0.709728 2.75045 0.737642C0.120275 2.25617 -0.780888 5.61936 0.737642 8.24953C2.25617 10.8797 5.61936 11.7809 8.24953 10.2623C10.7564 8.81498 11.6926 5.69181 10.46 3.12482L10.4741 3.11665ZM9.3021 2.81642C7.93122 0.869456 5.27587 0.25656 3.17384 1.47017C1.07181 2.68377 0.274926 5.28982 1.27561 7.45052L9.3021 2.81642ZM1.69861 8.18319L9.72512 3.54909C10.7259 5.70981 9.92897 8.3159 7.82692 9.52952C5.72486 10.7431 3.06947 10.1302 1.69861 8.18319Z" fill="#C4C4C4"/>
</svg>
