<svg width="26" height="10" viewBox="0 0 26 10" fill="none" xmlns="http://www.w3.org/2000/svg">
<path d="M2.84409 3.7394C3.19529 4.79301 5.62443 4.47107 6.7951 4.1784C8.1121 3.7394 8.11211 2.8614 7.67311 1.9834C7.23411 1.10539 5.4781 1.5444 4.6001 1.5444C3.72209 1.5444 2.40509 2.4224 2.84409 3.7394Z" fill="#698056"/>
<path d="M10.2835 1.94134C10.1997 3.04877 12.5642 3.69185 13.7569 3.87497C15.1412 3.97977 15.4809 3.17016 15.4159 2.19068C15.3508 1.21121 13.5617 0.936532 12.7521 0.596794C11.9425 0.257056 10.3883 0.557058 10.2835 1.94134Z" fill="#698056"/>
<path d="M17.692 3.70333C17.6082 4.81076 19.9726 5.45385 21.1654 5.63696C22.5496 5.74176 22.225 6.03588 22.1599 5.05641C22.0949 4.07693 20.9702 2.69853 20.1606 2.35879C19.351 2.01905 17.7968 2.31905 17.692 3.70333Z" fill="#698056"/>
<path d="M15.8097 2.34092C15.7577 3.02744 17.2235 3.4261 17.9629 3.53961C18.8211 3.60458 18.6198 3.78691 18.5795 3.17972C18.5391 2.57252 17.8419 1.71802 17.34 1.50741C16.8381 1.2968 15.8747 1.48277 15.8097 2.34092Z" fill="#698056"/>
<path d="M13.3523 6.94545C13.2867 7.812 15.1369 8.31522 16.0702 8.4585C17.1534 8.54051 18.9605 8.50635 18.9096 7.73991C18.8587 6.97347 15.9175 6.15919 15.284 5.89334C14.6505 5.6275 13.4343 5.86225 13.3523 6.94545Z" fill="#698056"/>
<path d="M6.36492 8.78257C6.70658 9.37652 8.13584 8.88373 8.80776 8.56309C9.55019 8.13601 10.7129 7.31208 10.3397 6.83508C9.96654 6.35808 7.68816 7.13209 7.15728 7.23985C6.6264 7.34761 5.93784 8.04013 6.36492 8.78257Z" fill="#698056"/>
<path d="M6.17144 5.59539C6.59573 6.33299 8.37064 5.72101 9.20506 5.32283C10.1271 4.79246 11.571 3.76926 11.1075 3.1769C10.6441 2.58455 7.81469 3.54575 7.15542 3.67957C6.49615 3.81339 5.64107 4.6734 6.17144 5.59539Z" fill="#698056"/>
<path d="M0.00467711 4.72192C-0.104412 5.56582 1.67859 6.15381 2.58373 6.34231C3.6386 6.47867 5.4073 6.53898 5.39727 5.78693C5.38723 5.03488 2.55362 4.08616 1.94797 3.79337C1.34231 3.50057 0.141038 3.66704 0.00467711 4.72192Z" fill="#698056"/>
<path d="M9.04579 6.12547C8.9367 6.96938 10.7197 7.55736 11.6248 7.74587C12.6797 7.88223 14.4484 7.94254 14.4384 7.19049C14.4283 6.43844 11.5947 5.48971 10.9891 5.19692C10.3834 4.90413 9.18215 5.0706 9.04579 6.12547Z" fill="#698056"/>
<path d="M21.6946 6.41686C22.1139 7.04213 23.6434 6.39408 24.3557 5.99189C25.1373 5.46771 26.3497 4.4768 25.9046 3.9821C25.4595 3.48741 23.0205 4.50781 22.4467 4.666C21.8729 4.82419 21.1704 5.63527 21.6946 6.41686Z" fill="#698056"/>
<path d="M14.3529 2.56896C14.7722 3.19423 16.3017 2.54618 17.014 2.144C17.7956 1.61982 19.008 0.628899 18.5629 0.134205C18.1178 -0.360489 15.6788 0.659913 15.105 0.818105C14.5312 0.976296 13.8287 1.78737 14.3529 2.56896Z" fill="#698056"/>
<path d="M16.0471 5.63151C16.4012 6.27477 17.4794 5.75113 17.9743 5.40891C18.5112 4.95218 19.3311 4.06947 18.9675 3.55229C18.604 3.03511 16.8837 3.85737 16.473 3.97059C16.0623 4.08381 15.6045 4.82743 16.0471 5.63151Z" fill="#698056"/>
<path d="M14.0916 3.76024C13.9196 4.26313 14.7251 4.58545 15.1493 4.68375C15.6554 4.74881 16.5273 4.75793 16.6272 4.3114C16.7271 3.86486 15.449 3.34415 15.1883 3.17939C14.9277 3.01463 14.3066 3.13164 14.0916 3.76024Z" fill="#698056"/>
<path d="M8.5322 2.04965C8.36022 2.55253 9.16571 2.87485 9.58995 2.97315C10.096 3.03821 10.968 3.04733 11.0678 2.6008C11.1677 2.15427 9.88961 1.63355 9.62897 1.46879C9.36834 1.30403 8.74719 1.42104 8.5322 2.04965Z" fill="#698056"/>
<path d="M5.11107 6.7537C4.93908 7.25659 5.74458 7.57891 6.16882 7.6772C6.67487 7.74227 7.54683 7.75139 7.64671 7.30486C7.7466 6.85832 6.46848 6.33761 6.20784 6.17285C5.94721 6.00808 5.32606 6.12509 5.11107 6.7537Z" fill="#698056"/>
<path d="M11.7706 5.63151C12.1247 6.27477 13.2029 5.75113 13.6978 5.40891C14.2347 4.95218 15.0546 4.06947 14.6911 3.55229C14.3275 3.03511 12.6072 3.85737 12.1965 3.97059C11.7858 4.08381 11.328 4.82743 11.7706 5.63151Z" fill="#698056"/>
<path d="M17.7578 8.19736C18.1119 8.84061 19.1901 8.31698 19.685 7.97475C20.2219 7.51803 21.0418 6.63531 20.6782 6.11814C20.3147 5.60096 18.5944 6.42322 18.1837 6.53644C17.773 6.64966 17.3152 7.39328 17.7578 8.19736Z" fill="#698056"/>
<path d="M10.389 9.69201C10.6493 10.1648 11.4417 9.77993 11.8054 9.5284C12.2001 9.19272 12.8027 8.54395 12.5355 8.16383C12.2683 7.78372 11.0039 8.38806 10.702 8.47127C10.4002 8.55449 10.0637 9.10103 10.389 9.69201Z" fill="#698056"/>
</svg>
