<svg width="60" height="24" viewBox="0 0 60 24" fill="none" xmlns="http://www.w3.org/2000/svg">
<path d="M0.204144 16.1632C1.02635 13.6966 6.71329 14.4503 9.45398 15.1354C12.5373 16.1632 12.5373 18.2187 11.5095 20.2742C10.4818 22.3297 6.3707 21.302 4.31518 21.302C2.25966 21.302 -0.823616 19.2465 0.204144 16.1632Z" fill="#C4C4C4"/>
<path d="M17.6212 20.3726C17.4249 17.78 22.9605 16.2744 25.7528 15.8457C28.9936 15.6004 29.789 17.4958 29.6367 19.7889C29.4843 22.082 25.2958 22.725 23.4004 23.5204C21.505 24.3157 17.8666 23.6134 17.6212 20.3726Z" fill="#C4C4C4"/>
<path d="M34.9656 16.2476C34.7693 13.6549 40.3049 12.1494 43.0972 11.7207C46.338 11.4753 45.578 10.7868 45.4257 13.0799C45.2733 15.3729 42.6402 18.6 40.7448 19.3953C38.8494 20.1907 35.211 19.4884 34.9656 16.2476Z" fill="#C4C4C4"/>
<path d="M49.3542 8.26241C49.1579 5.66978 54.6935 4.16423 57.4858 3.73554C60.7266 3.49019 59.9665 2.80161 59.8142 5.09469C59.6619 7.38778 57.0288 10.6148 55.1334 11.4102C53.238 12.2055 49.5995 11.5032 49.3542 8.26241Z" fill="#C4C4C4"/>
<path d="M24.6879 8.26245C24.4916 5.66982 30.0272 4.16427 32.8195 3.73558C36.0603 3.49022 41.4668 3.59243 41.3145 5.88552C41.1622 8.17861 32.3625 10.6148 30.4671 11.4102C28.5717 12.2056 24.9332 11.5032 24.6879 8.26245Z" fill="#C4C4C4"/>
<path d="M2.71177 1.05656C4.00823 -1.19721 9.43157 0.672708 11.9812 1.88939C14.7984 3.50995 19.2105 6.6364 17.7943 8.44639C16.3782 10.2564 7.73284 7.31935 5.7184 6.91045C3.70396 6.50155 1.0912 3.87377 2.71177 1.05656Z" fill="#C4C4C4"/>
</svg>
