<svg width="21" height="13" viewBox="0 0 21 13" fill="none" xmlns="http://www.w3.org/2000/svg">
<path d="M20.2669 6.10327C20.0847 5.85401 15.7431 0 10.1982 0C4.6532 0 0.311446 5.85401 0.12943 6.10303C-0.0431435 6.3395 -0.0431435 6.66023 0.12943 6.8967C0.311446 7.14596 4.6532 13 10.1982 13C15.7431 13 20.0847 7.14592 20.2669 6.8969C20.4397 6.66047 20.4397 6.3395 20.2669 6.10327ZM10.1982 11.6552C6.11371 11.6552 2.57614 7.76973 1.52894 6.49953C2.57479 5.22821 6.10494 1.34482 10.1982 1.34482C14.2824 1.34482 17.8197 5.22956 18.8674 6.50044C17.8215 7.77172 14.2914 11.6552 10.1982 11.6552Z" fill="#BDBDBD"/>
<path d="M10.1982 2.46552C7.97359 2.46552 6.16367 4.27543 6.16367 6.50001C6.16367 8.72459 7.97359 10.5345 10.1982 10.5345C12.4227 10.5345 14.2327 8.72459 14.2327 6.50001C14.2327 4.27543 12.4227 2.46552 10.1982 2.46552ZM10.1982 9.18964C8.71503 9.18964 7.50853 7.9831 7.50853 6.50001C7.50853 5.01692 8.71507 3.81037 10.1982 3.81037C11.6813 3.81037 12.8878 5.01692 12.8878 6.50001C12.8878 7.9831 11.6813 9.18964 10.1982 9.18964Z" fill="#BDBDBD"/>
</svg>
