<svg width="32" height="24" viewBox="0 0 32 24" fill="none" xmlns="http://www.w3.org/2000/svg">
<path d="M28.7385 0H2.76923C1.24418 0 0 1.24283 0 2.76923V21.2308C0 22.752 1.23865 24 2.76923 24H28.7385C30.2597 24 31.5077 22.7614 31.5077 21.2308V2.76923C31.5077 1.248 30.269 0 28.7385 0ZM28.3561 1.84615L15.8126 14.3897L3.16055 1.84615H28.3561ZM1.84615 20.8485V3.14271L10.7372 11.9575L1.84615 20.8485ZM3.15157 22.1538L12.0482 13.2572L15.1655 16.3478C15.5264 16.7056 16.1087 16.7044 16.4681 16.345L19.5077 13.3054L28.3561 22.1538H3.15157ZM29.6615 20.8484L20.8131 12L29.6615 3.15151V20.8484Z" fill="white"/>
</svg>
