<svg width="22" height="28" viewBox="0 0 22 28" fill="none" xmlns="http://www.w3.org/2000/svg">
<path d="M18.9062 28H3.09375C1.38875 28 0 26.586 0 24.85V12.95C0 11.214 1.38875 9.79999 3.09375 9.79999H18.9062C20.6112 9.79999 22 11.214 22 12.95V24.85C22 26.586 20.6112 28 18.9062 28ZM3.09375 11.9C2.52588 11.9 2.0625 12.3718 2.0625 12.95V24.85C2.0625 25.4282 2.52588 25.9 3.09375 25.9H18.9062C19.4741 25.9 19.9375 25.4282 19.9375 24.85V12.95C19.9375 12.3718 19.4741 11.9 18.9062 11.9H3.09375Z" fill="#01AA4F"/>
<path d="M16.8438 11.9C16.2745 11.9 15.8125 11.4296 15.8125 10.85V7C15.8125 4.298 13.6537 2.1 11 2.1C8.34625 2.1 6.1875 4.298 6.1875 7V10.85C6.1875 11.4296 5.7255 11.9 5.15625 11.9C4.587 11.9 4.125 11.4296 4.125 10.85V7C4.125 3.1402 7.20913 0 11 0C14.7909 0 17.875 3.1402 17.875 7V10.85C17.875 11.4296 17.413 11.9 16.8438 11.9Z" fill="#01AA4F"/>
</svg>
