<svg width="25" height="25" viewBox="0 0 25 25" fill="none" xmlns="http://www.w3.org/2000/svg">
<path d="M19 18.75H22C23.5171 18.75 24.75 17.516 24.75 16V9C24.75 7.48399 23.5171 6.25 22 6.25H3C1.48286 6.25 0.25 7.48399 0.25 9V16C0.25 17.516 1.48286 18.75 3 18.75H6C6.41407 18.75 6.75 18.4141 6.75 18C6.75 17.5859 6.41407 17.25 6 17.25H3C2.31107 17.25 1.75 16.6889 1.75 16V9C1.75 8.31107 2.31107 7.75 3 7.75H22C22.6889 7.75 23.25 8.31107 23.25 9V16C23.25 16.6889 22.6889 17.25 22 17.25H19C18.5859 17.25 18.25 17.5859 18.25 18C18.25 18.4141 18.5859 18.75 19 18.75Z" fill="white" stroke="white" stroke-width="0.5"/>
<path d="M9 21.75H15C15.4141 21.75 15.75 21.4141 15.75 21C15.75 20.5859 15.4141 20.25 15 20.25H9C8.58593 20.25 8.25 20.5859 8.25 21C8.25 21.4141 8.58593 21.75 9 21.75Z" fill="white" stroke="white" stroke-width="0.5"/>
<path d="M9 18.75H11C11.4141 18.75 11.75 18.4141 11.75 18C11.75 17.5859 11.4141 17.25 11 17.25H9C8.58593 17.25 8.25 17.5859 8.25 18C8.25 18.4141 8.58593 18.75 9 18.75Z" fill="white" stroke="white" stroke-width="0.5"/>
<path d="M18.25 7C18.25 7.41407 18.5859 7.75 19 7.75C19.4141 7.75 19.75 7.41407 19.75 7V3C19.75 1.48399 18.5171 0.25 17 0.25H8C6.48286 0.25 5.25 1.48399 5.25 3V7C5.25 7.41407 5.58593 7.75 6 7.75C6.41407 7.75 6.75 7.41407 6.75 7V3C6.75 2.31107 7.31107 1.75 8 1.75H17C17.6889 1.75 18.25 2.31107 18.25 3V7Z" fill="white" stroke="white" stroke-width="0.5"/>
<path d="M8 24.75H17C18.5171 24.75 19.75 23.516 19.75 22V14C19.75 13.5859 19.4141 13.25 19 13.25H6C5.58593 13.25 5.25 13.5859 5.25 14V22C5.25 23.516 6.48286 24.75 8 24.75ZM6.75 22V14.75H18.25V22C18.25 22.6889 17.6889 23.25 17 23.25H8C7.31107 23.25 6.75 22.6889 6.75 22Z" fill="white" stroke="white" stroke-width="0.5"/>
</svg>
