<svg width="43" height="51" viewBox="0 0 43 51" fill="none" xmlns="http://www.w3.org/2000/svg">
<path d="M38.0009 10.449C37.6694 10.1166 37.1306 10.1166 36.7991 10.449L33.7263 13.5218C33.3939 13.854 33.3939 14.3913 33.7263 14.7236C33.8921 14.8894 34.1097 14.9727 34.3273 14.9727C34.544 14.9727 34.7616 14.8902 34.9282 14.7236L38.0009 11.6509C38.3333 11.3186 38.3333 10.7814 38.0009 10.449Z" fill="#01AA4F"/>
<path d="M40.5511 12.999L35.4511 7.89901C35.1196 7.56662 34.5807 7.56662 34.2492 7.89901C33.9169 8.23141 33.9169 8.7686 34.2492 9.1009L39.3492 14.2009C39.515 14.3667 39.7326 14.4499 39.9502 14.4499C40.1678 14.4499 40.3854 14.3667 40.5511 14.2009C40.8835 13.8686 40.8835 13.3314 40.5511 12.999Z" fill="#01AA4F"/>
<path d="M8.77387 13.5218L5.70112 10.449C5.36873 10.1166 4.83074 10.1166 4.49924 10.449C4.16684 10.7814 4.16684 11.3186 4.49924 11.6509L7.57199 14.7236C7.73774 14.8894 7.95538 14.9727 8.17293 14.9727C8.39048 14.9727 8.60812 14.8902 8.77387 14.7236C9.10617 14.3913 9.10617 13.8541 8.77387 13.5218Z" fill="#01AA4F"/>
<path d="M8.25101 7.89901C7.91951 7.56662 7.38063 7.56662 7.04913 7.89901L1.94912 12.999C1.61673 13.3313 1.61673 13.8686 1.94912 14.2009C2.11487 14.3667 2.33252 14.4499 2.55007 14.4499C2.76762 14.4499 2.98526 14.3667 3.15101 14.2009L8.25101 9.1009C8.58331 8.7686 8.58331 8.23141 8.25101 7.89901Z" fill="#01AA4F"/>
<path d="M24.2555 26.7453C22.5989 25.0887 19.9027 25.0887 18.2452 26.7453C16.5886 28.4019 16.5886 31.0981 18.2452 32.7556C19.073 33.5835 20.1619 33.9983 21.2499 33.9983C22.3378 33.9983 23.4267 33.5835 24.2555 32.7556C25.9121 31.099 25.9121 28.4028 24.2555 26.7453ZM23.0527 31.5529C22.0591 32.5474 20.4407 32.5474 19.4471 31.5529C18.4534 30.5584 18.4534 28.9408 19.4471 27.9463C19.9443 27.4491 20.5971 27.2009 21.2499 27.2009C21.9026 27.2009 22.5555 27.4499 23.0527 27.9463C24.0464 28.9408 24.0464 30.5584 23.0527 31.5529Z" fill="#01AA4F"/>
<path d="M32.901 18.099C32.5686 17.7666 32.0306 17.7666 31.6991 18.099L23.0529 26.7444C22.7205 27.0767 22.7205 27.614 23.0529 27.9463C23.2187 28.1121 23.4363 28.1953 23.6539 28.1953C23.8714 28.1953 24.0891 28.1129 24.2548 27.9463L32.901 19.3009C33.2334 18.9686 33.2334 18.4314 32.901 18.099Z" fill="#01AA4F"/>
<path d="M19.447 31.5537C19.1155 31.2213 18.5774 31.2213 18.2451 31.5537L15.2395 34.5584C14.908 34.8899 14.908 35.428 15.2395 35.7603C15.4052 35.926 15.6229 36.0093 15.8404 36.0093C16.0581 36.0093 16.2756 35.926 16.4414 35.7603L19.447 32.7555C19.7785 32.4241 19.7785 31.886 19.447 31.5537Z" fill="#01AA4F"/>
<path d="M26.3499 0H16.1499C15.6807 0 15.2999 0.380807 15.2999 0.849967V5.1C15.2999 5.56916 15.6807 5.94997 16.1499 5.94997H26.3499C26.8191 5.94997 27.1999 5.56916 27.1999 5.1V0.849967C27.1999 0.380807 26.8191 0 26.3499 0ZM25.4999 4.25003H17V1.70003H25.4999V4.25003Z" fill="#01AA4F"/>
<path d="M21.25 8.49997C9.53272 8.49997 0 18.0327 0 29.7499C0 41.4672 9.53272 51 21.25 51C32.9672 51 42.4999 41.4673 42.4999 29.75C42.4999 18.0328 32.9672 8.49997 21.25 8.49997ZM21.25 49.3C10.4702 49.3 1.69993 40.5297 1.69993 29.7499C1.69993 18.9702 10.4702 10.2 21.25 10.2C32.0297 10.2 40.8 18.9703 40.8 29.75C40.8 40.5298 32.0297 49.3 21.25 49.3Z" fill="#01AA4F"/>
<path d="M22.95 4.25003H19.55C19.0809 4.25003 18.7001 4.63084 18.7001 5.1V9.35003C18.7001 9.81919 19.0809 10.2 19.55 10.2H22.95C23.4192 10.2 23.8 9.81919 23.8 9.35003V5.1C23.8 4.63084 23.4192 4.25003 22.95 4.25003ZM22.0999 8.49997H20.3999V5.94997H22.0999V8.49997Z" fill="#01AA4F"/>
<path d="M21.2499 11.9001C20.7807 11.9001 20.3999 12.2809 20.3999 12.75V14.4501C20.3999 14.9192 20.7807 15.3 21.2499 15.3C21.719 15.3 22.0998 14.9192 22.0998 14.4501V12.75C22.0998 12.2809 21.719 11.9001 21.2499 11.9001Z" fill="#01AA4F"/>
<path d="M21.2499 44.2C20.7807 44.2 20.3999 44.5808 20.3999 45.0499V46.75C20.3999 47.2191 20.7807 47.5999 21.2499 47.5999C21.719 47.5999 22.0998 47.2191 22.0998 46.75V45.0499C22.0998 44.5808 21.719 44.2 21.2499 44.2Z" fill="#01AA4F"/>
<path d="M38.2503 28.9H36.5503C36.0811 28.9 35.7003 29.2808 35.7003 29.7499C35.7003 30.2191 36.0811 30.5999 36.5503 30.5999H38.2503C38.7195 30.5999 39.1003 30.2191 39.1003 29.7499C39.1003 29.2808 38.7195 28.9 38.2503 28.9Z" fill="#01AA4F"/>
<path d="M5.95039 28.9H4.25036C3.7812 28.9 3.40039 29.2808 3.40039 29.7499C3.40039 30.2191 3.7812 30.5999 4.25036 30.5999H5.95039C6.41955 30.5999 6.80036 30.2191 6.80036 29.7499C6.80036 29.2808 6.41955 28.9 5.95039 28.9Z" fill="#01AA4F"/>
</svg>
