<svg width="25" height="22" viewBox="0 0 25 22" fill="none" xmlns="http://www.w3.org/2000/svg">
<path d="M12.4984 6.25L12.4961 11.7157C12.4961 11.9233 12.5785 12.1216 12.725 12.2681L16.635 16.1774L17.7398 15.0726L14.0586 11.3922L14.0608 6.25H12.4984Z" fill="white"/>
<path d="M14.0625 0C8.56336 0 4.01212 4.08402 3.24987 9.37501H0L3.90625 13.2813L7.81249 9.37501H4.82862C5.57604 4.94824 9.42622 1.56252 14.0625 1.56252C19.2322 1.56252 23.4375 5.76783 23.4375 10.9375C23.4375 16.1072 19.2322 20.3125 14.0625 20.3125C11.1565 20.3125 8.4618 18.9972 6.66962 16.7038L5.43824 17.6651C7.52867 20.34 10.672 21.875 14.0625 21.875C20.0935 21.875 25 16.9678 25 10.9375C25 4.90728 20.0935 4.53614e-05 14.0625 0Z" fill="white"/>
</svg>
