<svg width="25" height="26" viewBox="0 0 25 26" fill="none" xmlns="http://www.w3.org/2000/svg">
<path fill-rule="evenodd" clip-rule="evenodd" d="M12 14C15.866 14 19 10.866 19 7C19 3.134 15.866 0 12 0C8.134 0 5 3.134 5 7C5 10.866 8.134 14 12 14ZM12 12C14.7614 12 17 9.76141 17 7C17 4.23859 14.7614 2 12 2C9.23857 2 7 4.23859 7 7C7 9.76141 9.23857 12 12 12Z" fill="#01AA4F"/>
<path d="M21.3388 16.6612C23.683 19.0054 25 22.1848 25 25.5H23C23 19.701 18.299 15 12.5 15C6.70101 15 2 19.701 2 25.5L0 25.5C0 22.1848 1.31696 19.0054 3.66117 16.6612C6.00537 14.317 9.1848 13 12.5 13C15.8152 13 18.9946 14.317 21.3388 16.6612Z" fill="#01AA4F"/>
</svg>
