<svg width="61" height="24" viewBox="0 0 61 24" fill="none" xmlns="http://www.w3.org/2000/svg">
<path d="M6.67242 8.77315C7.49639 11.2451 13.1955 10.4898 15.9421 9.80312C19.032 8.77315 19.032 6.71322 18.0021 4.65328C16.9721 2.59335 12.8522 3.62331 10.7923 3.62331C8.73235 3.62331 5.64245 5.68325 6.67242 8.77315Z" fill="#C4C4C4"/>
<path d="M24.1269 4.55468C23.9302 7.15288 29.4776 8.66166 32.276 9.09128C35.5237 9.33716 36.3208 7.43769 36.1681 5.13968C36.0155 2.84167 31.818 2.19724 29.9185 1.40016C28.019 0.603083 24.3728 1.30693 24.1269 4.55468Z" fill="#C4C4C4"/>
<path d="M41.5084 8.68858C41.3117 11.2868 46.8592 12.7956 49.6575 13.2252C52.9052 13.4711 52.1436 14.1611 51.9909 11.8631C51.8383 9.56509 49.1995 6.33114 47.3001 5.53406C45.4006 4.73698 41.7543 5.44083 41.5084 8.68858Z" fill="#C4C4C4"/>
<path d="M37.0921 5.4922C36.9701 7.10288 40.4091 8.0382 42.1439 8.30453C44.1572 8.45696 43.6851 8.88474 43.5904 7.46015C43.4958 6.03557 41.86 4.03077 40.6824 3.53665C39.5049 3.04252 37.2445 3.47885 37.0921 5.4922Z" fill="#C4C4C4"/>
<path d="M31.3265 16.2952C31.1726 18.3282 35.5135 19.5089 37.7032 19.845C40.2445 20.0374 44.4842 19.9573 44.3647 18.1591C44.2453 16.3609 37.3448 14.4505 35.8585 13.8268C34.3721 13.2031 31.5189 13.7538 31.3265 16.2952Z" fill="#C4C4C4"/>
<path d="M14.9334 20.6053C15.735 21.9988 19.0883 20.8427 20.6647 20.0904C22.4066 19.0884 25.1345 17.1553 24.259 16.0362C23.3834 14.9171 18.0379 16.7331 16.7924 16.9859C15.5469 17.2387 13.9314 18.8635 14.9334 20.6053Z" fill="#C4C4C4"/>
<path d="M14.4792 13.1275C15.4747 14.858 19.6389 13.4223 21.5966 12.488C23.7597 11.2437 27.1474 8.84314 26.0601 7.45337C24.9728 6.0636 18.3345 8.31874 16.7878 8.63271C15.241 8.94667 13.2349 10.9644 14.4792 13.1275Z" fill="#C4C4C4"/>
<path d="M0.0111953 11.0783C-0.244745 13.0583 3.93846 14.4378 6.06206 14.88C8.53696 15.2 12.6866 15.3415 12.6631 13.577C12.6395 11.8126 5.99143 9.58674 4.57046 8.89981C3.1495 8.21287 0.33112 8.60342 0.0111953 11.0783Z" fill="#C4C4C4"/>
<path d="M21.2227 14.3713C20.9667 16.3512 25.1499 17.7307 27.2735 18.173C29.7484 18.4929 33.8981 18.6344 33.8745 16.87C33.851 15.1055 27.2029 12.8797 25.7819 12.1928C24.361 11.5058 21.5426 11.8964 21.2227 14.3713Z" fill="#C4C4C4"/>
<path d="M50.8986 15.0549C51.8825 16.5218 55.4709 15.0014 57.1421 14.0578C58.9758 12.828 61.8202 10.5032 60.776 9.34253C59.7317 8.1819 54.0094 10.5759 52.6632 10.9471C51.317 11.3182 49.6688 13.2211 50.8986 15.0549Z" fill="#C4C4C4"/>
<path d="M33.6741 6.02719C34.6579 7.49418 38.2463 5.97375 39.9175 5.03016C41.7513 3.80035 44.5956 1.4755 43.5514 0.314869C42.5072 -0.845762 36.7848 1.54826 35.4386 1.91941C34.0924 2.29055 32.4442 4.19346 33.6741 6.02719Z" fill="#C4C4C4"/>
<path d="M37.6493 13.2124C38.48 14.7216 41.0097 13.4931 42.1706 12.6902C43.4303 11.6186 45.3539 9.54763 44.501 8.33425C43.6481 7.12086 39.6119 9.05002 38.6484 9.31565C37.6849 9.58129 36.6108 11.3259 37.6493 13.2124Z" fill="#C4C4C4"/>
<path d="M33.0607 8.82205C32.6572 10.0019 34.547 10.7581 35.5424 10.9887C36.7296 11.1414 38.7754 11.1628 39.0097 10.1151C39.2441 9.0675 36.2454 7.84582 35.6339 7.45926C35.0224 7.07271 33.5651 7.34723 33.0607 8.82205Z" fill="#C4C4C4"/>
<path d="M20.0178 4.80883C19.6142 5.98868 21.5041 6.74489 22.4994 6.97551C23.6867 7.12816 25.7324 7.14956 25.9668 6.10192C26.2011 5.05428 23.2024 3.8326 22.591 3.44604C21.9795 3.05949 20.5221 3.33401 20.0178 4.80883Z" fill="#C4C4C4"/>
<path d="M11.9913 15.8452C11.5878 17.025 13.4776 17.7812 14.473 18.0119C15.6602 18.1645 17.706 18.1859 17.9403 17.1383C18.1747 16.0906 15.176 14.869 14.5645 14.4824C13.953 14.0958 12.4957 14.3704 11.9913 15.8452Z" fill="#C4C4C4"/>
<path d="M27.6162 13.2124C28.447 14.7216 30.9766 13.4931 32.1376 12.6902C33.3973 11.6186 35.3208 9.54763 34.468 8.33425C33.6151 7.12086 29.5789 9.05002 28.6154 9.31565C27.6519 9.58129 26.5778 11.3259 27.6162 13.2124Z" fill="#C4C4C4"/>
<path d="M41.6625 19.2323C42.4933 20.7414 45.0229 19.5129 46.1839 18.71C47.4435 17.6384 49.3671 15.5675 48.5142 14.3541C47.6613 13.1407 43.6252 15.0698 42.6617 15.3355C41.6981 15.6011 40.624 17.3458 41.6625 19.2323Z" fill="#C4C4C4"/>
<path d="M24.3742 22.739C24.9848 23.8482 26.844 22.9452 27.6973 22.3551C28.6232 21.5676 30.0369 20.0454 29.4101 19.1536C28.7832 18.2618 25.8167 19.6797 25.1086 19.8749C24.4004 20.0702 23.611 21.3524 24.3742 22.739Z" fill="#C4C4C4"/>
</svg>
