<svg width="190" height="129" viewBox="0 0 190 129" fill="none" xmlns="http://www.w3.org/2000/svg">
<path d="M164.924 62.5398L164.931 62.5421C169.509 64.1851 173.75 66.8995 177.136 70.4623C180.499 74.0016 183.04 78.3337 184.466 82.9625M164.924 62.5398L180.643 84.1399M164.924 62.5398C160.293 60.8868 155.305 60.3657 150.471 60.9639L150.469 60.9641C149.545 61.0788 148.631 61.2351 147.729 61.4314C148.3 60.5276 148.798 59.5752 149.218 58.5819C151.295 53.7108 151.315 48.3132 149.33 43.418L149.327 43.4108C147.343 38.5432 143.572 34.679 138.704 32.6256C134.768 30.9556 130.472 30.6095 126.371 31.6048C126.43 27.1704 125.555 22.7141 123.776 18.6332C122.266 15.1131 120.093 11.9258 117.472 9.20523L114.375 5.99013L111.518 9.42009C110.952 10.0994 110.343 10.6674 109.706 11.1065L109.69 11.1178L109.673 11.1293C108.41 12.0187 106.942 12.6114 105.421 12.8442C103.924 13.0736 102.359 12.9376 100.895 12.4545L100.894 12.4541C99.6134 12.0322 98.4744 11.3845 97.4509 10.4924M164.924 62.5398L97.4509 10.4924M184.466 82.9625L180.643 84.1399M184.466 82.9625C184.466 82.962 184.465 82.9616 184.465 82.9611L180.643 84.1399M184.466 82.9625C185.918 87.6729 186.215 92.6895 185.392 97.5017C184.569 102.32 182.601 106.962 179.671 110.897M180.643 84.1399C181.907 88.2384 182.168 92.6203 181.449 96.8278C180.73 101.035 179.009 105.09 176.459 108.513M179.671 110.897C179.672 110.896 179.673 110.894 179.674 110.893L176.459 108.513M179.671 110.897C176.752 114.839 172.913 118.082 168.537 120.283C164.255 122.437 159.471 123.608 154.663 123.652M179.671 110.897C179.669 110.899 179.668 110.901 179.667 110.902L176.459 108.513M176.459 108.513L154.663 123.652M154.663 123.652L154.858 123.593C154.833 123.6 154.649 123.653 154.383 123.653C154.477 123.653 154.57 123.652 154.663 123.652ZM154.663 123.652L154.295 123.762H153.708H36.5317H35.9445L35.586 123.654M154.663 123.652L153.708 119.762H36.5317C36.3138 119.696 36.0741 119.653 35.8344 119.653M35.586 123.654C35.6828 123.654 35.7795 123.654 35.8763 123.653L35.859 122.003L35.8344 119.653M35.586 123.654C30.9017 123.659 26.2151 122.586 22.0008 120.552C17.7119 118.481 13.8728 115.416 10.9198 111.661C7.97462 107.916 5.87927 103.477 4.87878 98.7978C3.88085 94.1306 3.95435 89.2199 5.10461 84.592L8.98649 85.5569L5.10461 84.592C6.25198 79.9758 8.46873 75.5854 11.5493 71.9274C14.6126 68.2899 18.525 65.3186 22.9128 63.3873C27.2782 61.4658 32.085 60.5435 36.8526 60.7183C38.7521 60.788 40.6448 61.035 42.4992 61.4485C41.1243 59.3315 40.1323 56.9709 39.6422 54.4164C39.1281 51.7367 39.1516 49.0031 39.7539 46.3164C40.3569 43.6045 41.5076 41.1189 43.1045 38.9256L43.114 38.9127L43.1235 38.8998C44.7453 36.7095 46.7602 34.8815 49.1308 33.4914L49.1456 33.4827L49.1605 33.4741C51.5127 32.1217 54.1101 31.2412 56.8621 30.9384C59.5687 30.6405 62.3021 30.8822 64.9371 31.705C65.0881 31.7516 65.2385 31.8001 65.3883 31.8504C64.5665 29.6407 64.1303 27.292 64.1303 24.9079C64.1303 22.337 64.6165 19.7646 65.6338 17.3373C66.6226 14.926 68.073 12.7698 69.9109 10.9286C71.7751 9.03891 73.9696 7.62513 76.3205 6.6363L76.3384 6.62878L76.3563 6.62143C78.7411 5.64547 81.3033 5.12439 83.9078 5.12439C86.4777 5.12439 89.0489 5.61067 91.4752 6.62795C93.5446 7.47495 95.4383 8.65534 97.1125 10.1654L97.4009 10.4255L97.4509 10.4924M35.586 123.654L35.382 123.593C35.4519 123.614 35.6048 123.653 35.8344 123.653V122.086V119.653M35.8344 119.653L97.4509 10.4924" stroke="white" stroke-width="8"/>
<path d="M64.6866 78.1242L64.6866 78.1242L64.694 78.1288L90.6195 93.8212C91.1266 94.1365 91.7002 94.2961 92.276 94.2961C93.0896 94.2961 93.9191 93.985 94.5347 93.345L129.794 58.8119L129.794 58.8119L129.802 58.8044C131.055 57.5507 131.007 55.5442 129.78 54.3166C128.528 53.0642 126.525 53.1105 125.297 54.3339L91.8039 87.0692L68.0253 72.6944C68.0238 72.6935 68.0224 72.6926 68.0209 72.6917C66.5222 71.77 64.5596 72.2514 63.6416 73.7398C62.7169 75.2391 63.1972 77.2049 64.6866 78.1242Z" fill="white" stroke="white" stroke-width="2"/>
</svg>
