<svg width="21" height="17" viewBox="0 0 21 17" fill="none" xmlns="http://www.w3.org/2000/svg">
<path d="M17.2095 5.7139C17.211 5.66612 17.2117 5.61915 17.2117 5.57284C17.2117 2.49996 14.7118 0 11.6389 0C8.69937 0 6.28413 2.28776 6.08006 5.17621C5.54354 4.94823 4.96512 4.82993 4.3736 4.82993C1.96197 4.82993 0 6.7919 0 9.20353C0 10.2505 0.375768 11.2635 1.05806 12.0559C1.2234 12.2479 1.5131 12.2695 1.70506 12.1042C1.89707 11.9389 1.91872 11.6492 1.75338 11.4572C1.21441 10.8312 0.917551 10.0309 0.917551 9.20353C0.917551 7.2979 2.46791 5.74754 4.3736 5.74754C5.05822 5.74754 5.72057 5.94812 6.28902 6.32756C6.43473 6.42482 6.62307 6.43063 6.77453 6.34248C6.92592 6.25434 7.01395 6.08765 7.00135 5.91295L6.9989 5.87918C6.99107 5.77201 6.98367 5.67071 6.98367 5.57284C6.98367 3.0059 9.07201 0.917551 11.639 0.917551C14.2058 0.917551 16.2942 3.0059 16.2942 5.57284C16.2942 5.74106 16.2822 5.92353 16.2574 6.13077C16.241 6.26828 16.2875 6.40579 16.384 6.50507C16.4806 6.60435 16.6167 6.65506 16.7547 6.64209C16.8624 6.63225 16.9516 6.62772 17.0356 6.62772C18.7157 6.62772 20.0824 7.9945 20.0824 9.67454C20.0824 10.4883 19.7655 11.2535 19.1901 11.829C19.0109 12.0082 19.0109 12.2987 19.1901 12.4778C19.2797 12.5674 19.3971 12.6122 19.5145 12.6122C19.6319 12.6122 19.7493 12.5674 19.8389 12.4778C20.5877 11.729 21 10.7335 21 9.67454C20.9999 7.54686 19.3151 5.80529 17.2095 5.7139Z" fill="#999999"/>
<path d="M15.2195 10.2574C13.6355 10.2574 12.3468 11.5461 12.3468 13.1301C12.3468 13.3835 12.5522 13.5889 12.8056 13.5889C13.0589 13.5889 13.2643 13.3835 13.2643 13.1301C13.2643 12.0521 14.1414 11.175 15.2195 11.175C16.2976 11.175 17.1746 12.0521 17.1746 13.1301C17.1746 14.2082 16.2976 15.0853 15.2195 15.0853C15.1941 15.0853 15.1694 15.0879 15.1452 15.0918H3.96073C3.70736 15.0918 3.50195 15.2972 3.50195 15.5506C3.50195 15.804 3.70736 16.0094 3.96073 16.0094H15.2195C15.2499 16.0094 15.2796 16.0063 15.3085 16.0006C16.8514 15.9532 18.0922 14.6843 18.0922 13.1301C18.0922 11.5462 16.8035 10.2574 15.2195 10.2574Z" fill="#999999"/>
<path d="M8.45882 13.5834C10.0017 13.5361 11.2425 12.2671 11.2425 10.713C11.2425 9.12894 9.95381 7.84027 8.36975 7.84027C6.78575 7.84027 5.49708 9.12894 5.49708 10.713C5.49708 10.9664 5.70249 11.1718 5.95586 11.1718C6.20922 11.1718 6.41463 10.9664 6.41463 10.713C6.41463 9.63488 7.29169 8.75782 8.36975 8.75782C9.44788 8.75782 10.3249 9.63488 10.3249 10.713C10.3249 11.7911 9.44788 12.6681 8.36975 12.6681C8.34443 12.6681 8.31972 12.6707 8.29549 12.6747H2.54789C2.29452 12.6747 2.08911 12.8801 2.08911 13.1334C2.08911 13.3868 2.29452 13.5922 2.54789 13.5922H8.36975C8.40021 13.5922 8.43001 13.589 8.45882 13.5834Z" fill="#999999"/>
</svg>
